# xmcd
#
# Track frame offsets:
#	150
#	13312
#	28874
#	43986
#	60073
#	80735
#	96147
#	113734
#	133346
#	146733
#	163870
#	180182
#	199119
#	215731
#	231443
#	248355
#	267592
#	285254
#
# Disc length: 4028 seconds
#
# Revision: 0
# Processed by: cddbd v1.5.2PL0 Copyright (c) Steve Scherf et al.
# Submitted via: audiograbber 1.83.01
#
DISCID=080fba12
DTITLE=Various Artist - Jan '10 Country Radio
DYEAR=2010
DGENRE=Country
TTITLE0=Randy Houser - Whistlin' Dixie
TTITLE1=Chris Young - The Man I Want To Be
TTITLE2=Bridgette Tatum - (I Like My) Cowboys Dirty
TTITLE3=Lee Brice - Love Like Crazy
TTITLE4=Brad Paisley - American Saturday Night
TTITLE5=Clay Walker - She Won't Be Lonely Long
TTITLE6=Keith Urban - Til Summer Comes Around
TTITLE7=Carrie Underwood - Temporary Home
TTITLE8=Band Perry, The - Hip To My Heart
TTITLE9=Zac Brown Band - Highway 20 Ride
TTITLE10=Jonathan Singleton and The Grove - Look Who's Back In Love
TTITLE11=Lee Ann Womack - There Is A God
TTITLE12=Matt Kennon - The Call
TTITLE13=Lorrie Morgan - Leavin' On Your Mind
TTITLE14=Montgomery Gentry - Oughta Be More Songs About...
TTITLE15=Mallary Hope - Love Lives On
TTITLE16=Steve Azar - Sunshine
TTITLE17=Darren Kozelsky - Real Superman
EXTD=
EXTT0=
EXTT1=
EXTT2=
EXTT3=
EXTT4=
EXTT5=
EXTT6=
EXTT7=
EXTT8=
EXTT9=
EXTT10=
EXTT11=
EXTT12=
EXTT13=
EXTT14=
EXTT15=
EXTT16=
EXTT17=
PLAYORDER=
